<svg width="1024" height="1024" xmlns="http://www.w3.org/2000/svg">
		<g>
				<title>Layer 1</title>
				<g id="svg_1" class="layer">
						<path id="svg_2" d="m988,548c-19.9,0 -36,-16.1 -36,-36c0,-59.4 -11.6,-117 -34.6,-171.3a440.45,440.45 0 0 0 -94.3,-139.9a437.71,437.71 0 0 0 -139.9,-94.3c-54.2,-22.9 -111.8,-34.5 -171.2,-34.5c-19.9,0 -36,-16.1 -36,-36s16.1,-36 36,-36c69.1,0 136.2,13.5 199.3,40.3c61,25.7 115.7,62.7 162.7,109.7c47,47 83.9,101.8 109.7,162.7c26.7,63.1 40.2,130.2 40.2,199.3c0.1,19.9 -16,36 -35.9,36z"/>
				</g>
		</g>
</svg>
